<svg xmlns="http://www.w3.org/2000/svg" xmlns:xlink="http://www.w3.org/1999/xlink" version="1.1" viewBox="Infinity Infinity -Infinity -Infinity">
  <defs>
    <style>
      .cls-1 {
        fill: none;
      }

      .cls-2 {
        clip-path: url(#clippath);
      }
    </style>
    <clipPath id="clippath">
      <rect class="cls-1" x="234" y="144" width="109.29" height="114.69"/>
    </clipPath>
  </defs>
  <!-- Generator: Adobe Illustrator 28.6.0, SVG Export Plug-In . SVG Version: 1.2.0 Build 709)  -->
  <g>
    <g id="Layer_1">
      <g class="cls-2">
        <g id="Group_7">
          <path id="Path_29" class="cls-1" d="M277.59,209.17c.02,3.75-.97,7.43-2.89,10.65-.54.87-1.38,1.5-2.36,1.77l-23.28,6.62c-8.02,2.28-13.56,9.61-13.56,17.95v9.37c0,.92.74,1.66,1.66,1.66h102.98c.92,0,1.66-.74,1.66-1.66h0v-9.37c0-8.34-5.54-15.67-13.56-17.95l-23.29-6.62c-.98-.28-1.82-.91-2.36-1.77-1.91-3.22-2.91-6.91-2.89-10.65"/>
          <line id="Line_2" class="cls-1" x1="257.3" y1="257.2" x2="257.3" y2="246.97"/>
          <line id="Line_3" class="cls-1" x1="319.99" y1="255.94" x2="319.99" y2="246.97"/>
          <path id="Path_30" class="cls-1" d="M303.81,222.01l-15.17,23.99-15.17-23.99"/>
          <line id="Line_4" class="cls-1" x1="288.65" y1="246" x2="288.65" y2="255.97"/>
          <path id="Path_31" class="cls-1" d="M312.86,168.79c-1.05-8.19-5.9-19.24-24.44-19.24s-23.26,10.64-24.48,18.78"/>
          <path id="Path_32" class="cls-1" d="M274.93,174c-2.98,2.54-6.77,3.91-10.68,3.86-2.24.03-4.16,1.6-4.63,3.8-.14.76-.09,1.54.14,2.28l1.47,5.11c.43,1.52,1.61,2.71,3.13,3.17h0c1.21.35,2.2,1.24,2.67,2.41,4.08,10.23,12.13,17.96,21.4,17.96s17.2-7.61,21.31-17.73c.52-1.28,1.58-2.27,2.9-2.69h0c1.45-.49,2.56-1.65,2.98-3.12l1.46-5.11c.23-.74.28-1.52.14-2.28-.47-2.19-2.39-3.77-4.63-3.79-11.59,0-22.91-2.43-31-12.13"/>
          <path id="Path_33" class="cls-1" d="M250.8,159.08v-12.98c0-.33.27-.6.6-.6h14.54"/>
          <path id="Path_34" class="cls-1" d="M250.8,198.87v12.98c0,.33.27.6.6.6h14.54"/>
          <path id="Path_35" class="cls-1" d="M326.5,159.08v-12.98c0-.33-.27-.6-.6-.6h-14.54"/>
          <path id="Path_36" class="cls-1" d="M326.5,198.87v12.98c0,.33-.27.6-.6.6h-14.54"/>
        </g>
      </g>
    </g>
  </g>
</svg>