<svg xmlns="http://www.w3.org/2000/svg" xmlns:xlink="http://www.w3.org/1999/xlink" version="1.1" viewBox="Infinity Infinity -Infinity -Infinity">
  <defs>
    <style>
      .cls-1 {
        fill: none;
      }

      .cls-2 {
        clip-path: url(#clippath);
      }
    </style>
    <clipPath id="clippath">
      <rect class="cls-1" x="473.92" y="483.39" width="131.61" height="116.01"/>
    </clipPath>
  </defs>
  <!-- Generator: Adobe Illustrator 28.6.0, SVG Export Plug-In . SVG Version: 1.2.0 Build 709)  -->
  <g>
    <g id="Layer_1">
      <g class="cls-2">
        <g id="Group_9">
          <path id="Path_37" class="cls-1" d="M521.4,567.22l57.28-37.29c11.37-7.25,14.71-22.34,7.46-33.71-7.25-11.37-22.34-14.71-33.71-7.46-.13.08-.26.17-.39.25l-71.73,46.71c-.47.31-.6.94-.3,1.41.11.16.26.29.44.37l19.53,8.71c2.67,1.19,4.94,3.12,6.54,5.57l9.31,14.26c1.21,1.86,3.7,2.38,5.56,1.17Z"/>
          <path id="Path_38" class="cls-1" d="M483.64,546.76l-7.47,4.87c-.59.38-.75,1.17-.37,1.76,0,0,0,0,0,0l13.2,20.23c.38.59,1.17.75,1.76.37,0,0,0,0,0,0l14.95-9.75"/>
          <path id="Path_39" class="cls-1" d="M543.36,552.92l17.4,26.51c.19.28.5.45.84.45h26.04"/>
          <path id="Path_40" class="cls-1" d="M556.85,544.14l13.01,19.82c.08.12.22.2.37.2h17.42"/>
          <line id="Line_5" class="cls-1" x1="516.34" y1="539.6" x2="562.95" y2="509.25"/>
          <path id="Path_41" class="cls-1" d="M602.83,597.73h-7.88c-3.63,0-6.57-2.94-6.57-6.57h0v-38.21c0-3.63,2.94-6.57,6.57-6.57h7.87c.57,0,1.04.46,1.04,1.04h0v49.28c0,.57-.46,1.03-1.03,1.04Z"/>
        </g>
      </g>
    </g>
  </g>
</svg>