<svg xmlns="http://www.w3.org/2000/svg" xmlns:xlink="http://www.w3.org/1999/xlink" version="1.1" viewBox="Infinity Infinity -Infinity -Infinity">
  <defs>
    <style>
      .cls-1 {
        fill: none;
      }

      .cls-2 {
        clip-path: url(#clippath);
      }
    </style>
    <clipPath id="clippath">
      <rect class="cls-1" x="482.36" y="479.75" width="114.73" height="121.41"/>
    </clipPath>
  </defs>
  <!-- Generator: Adobe Illustrator 28.6.0, SVG Export Plug-In . SVG Version: 1.2.0 Build 709)  -->
  <g>
    <g id="Layer_1">
      <g class="cls-2">
        <g id="Group_5">
          <path id="Path_25" class="cls-1" d="M568.73,482.62c4.27,10.41,13.63,17.85,24.73,19.66,1.14.18,1.99,1.17,1.99,2.33v18.36c.07,16.85-5.25,33.28-15.18,46.89-9.93,13.74-23.87,24.06-39.91,29.55-.4.14-.84.14-1.24,0-16.04-5.49-29.98-15.82-39.91-29.56-9.93-13.61-15.25-30.04-15.18-46.89v-18.36c0-1.16.84-2.14,1.99-2.33,11.1-1.81,20.46-9.26,24.73-19.66.31-.74,1.05-1.22,1.85-1.22h54.3c.81,0,1.54.47,1.86,1.22Z"/>
          <path id="Path_26" class="cls-1" d="M539.73,581.97c-10.97-4.71-20.43-12.34-27.37-22.05-7.75-10.76-11.9-23.69-11.86-36.95v-7.95"/>
          <path id="Path_27" class="cls-1" d="M521.11,497.89h37.16s.09.02.12.06c5.02,7.29,11.92,13.08,19.96,16.79.37.17.61.54.61.94v7.28c.05,13.26-4.1,26.2-11.86,36.96-2.57,3.53-5.47,6.82-8.65,9.82"/>
          <path id="Path_28" class="cls-1" d="M556.87,525.29l-20.94,24.19c-.25.29-.69.33-.99.08-.03-.02-.05-.05-.08-.08l-12.29-14.42"/>
        </g>
      </g>
    </g>
  </g>
</svg>