<svg xmlns="http://www.w3.org/2000/svg" xmlns:xlink="http://www.w3.org/1999/xlink" version="1.1" viewBox="414.73 514.13 250.01 52.58">
  <defs>
    <style>
      .cls-1 {
        fill: none;
      }

      .cls-2 {
        fill: #fff;
      }

      .cls-3 {
        clip-path: url(#clippath);
      }
    </style>
    <clipPath id="clippath">
      <rect class="cls-1" x="414.73" y="514.13" width="250" height="52.56"/>
    </clipPath>
  </defs>
  <!-- Generator: Adobe Illustrator 28.6.0, SVG Export Plug-In . SVG Version: 1.2.0 Build 709)  -->
  <g>
    <g id="Layer_1">
      <g id="Group_2">
        <g class="cls-3">
          <g id="Group_1">
            <path id="Path_1" class="cls-2" d="M513.15,514.13h4.39v35.24c-.06.51.07,1.03.35,1.46.41.31.92.45,1.43.38h2.67v3.82h-2.67c-2.29,0-3.89-.4-4.8-1.21-.91-.81-1.37-2.29-1.37-4.45v-35.24Z"/>
            <path id="Path_2" class="cls-2" d="M539.1,526.4h4.71l9.03,23.16,9.48-23.15h4.77l-14.31,34.47c-.55,1.23-.93,2.05-1.15,2.45-.34.58-.72,1.14-1.15,1.65-.49.66-1.18,1.14-1.97,1.37-.96.23-1.94.34-2.93.32h-4.9v-3.82h4.9c.47.02.94-.06,1.37-.25.24-.11.44-.27.6-.48.08-.15.3-.56.64-1.24l2.61-6.3-11.7-28.17Z"/>
            <path id="Path_3" class="cls-2" d="M591.2,526.4v5.41c.79-1.77,2.1-3.27,3.75-4.29,1.79-1.14,3.86-1.74,5.98-1.75h.25c4.28,0,7.42,1.11,9.41,3.34,1.99,2.23,2.99,5.63,2.99,10.21v15.71h-4.45v-15.71c0-3.48-.64-5.98-1.91-7.51s-3.35-2.29-6.23-2.29c-2.6-.13-5.13.83-7,2.64-1.74,1.76-2.61,4.53-2.61,8.3v14.57h-4.39v-28.62h4.2Z"/>
            <path id="Path_4" class="cls-2" d="M646.09,540.33l-12.59-13.93h5.41l9.67,10.69,9.67-10.69h5.47l-12.4,13.74,13.42,14.88h-5.41l-10.5-11.64-10.37,11.64h-5.41l13.04-14.69Z"/>
            <path id="Path_5" class="cls-2" d="M564.89,565.17s0,.07,0,.1c.02.08.05.15.09.22.05.11.12.2.2.29.12.1.26.18.41.22.22.07.44.11.67.1.35.03.71-.05,1.02-.22.2-.13.32-.36.32-.6v-.05c-.02-.22-.16-.41-.37-.49-.26-.13-.54-.21-.83-.25-.32-.05-.64-.11-.96-.17-.3-.05-.58-.18-.81-.37-.22-.18-.35-.45-.34-.73v-.02c.01-.36.19-.69.47-.9.42-.3.93-.45,1.44-.41.32,0,.63.04.93.14.22.06.43.18.6.33.12.11.22.24.31.38.07.1.11.22.14.34l.02.13h-.77s0-.06-.01-.08c-.02-.06-.06-.13-.09-.18-.05-.09-.12-.17-.2-.24-.11-.08-.23-.15-.37-.18-.18-.06-.37-.08-.56-.08-.3-.02-.61.06-.87.21-.19.11-.31.31-.32.53v.04c0,.17.1.32.25.4.19.11.39.18.61.21.24.04.5.08.79.14.29.06.55.12.79.2.24.07.45.21.62.39.17.19.27.43.27.68v.06c0,.39-.17.76-.48,1-.47.3-1.03.44-1.59.39-.35,0-.69-.04-1.02-.15-.24-.07-.46-.2-.64-.38-.13-.14-.24-.29-.33-.45-.07-.12-.12-.24-.14-.38v-.15s.75,0,.75,0Z"/>
            <path id="Path_6" class="cls-2" d="M573.64,564.6v-2.61h.7v2.61c-.04.4.08.81.33,1.13.26.25.61.37.97.35.39.01.76-.14,1.02-.43.29-.37.43-.83.39-1.3v-2.36h.7v4.59h-.67v-.88c-.13.28-.32.52-.57.69-.26.19-.59.29-.91.29-.54.04-1.08-.14-1.48-.51-.36-.44-.53-1-.48-1.57"/>
            <path id="Path_7" class="cls-2" d="M584.07,561.99v.86c.21-.54.74-.88,1.32-.86h.67v.61h-.65c-.4-.05-.8.12-1.03.46-.21.51-.31,1.07-.27,1.62v1.9h-.7v-4.59h.67Z"/>
            <path id="Path_8" class="cls-2" d="M591.78,561.99l1.59,3.83,1.61-3.83h.76l-1.97,4.59h-.79l-1.96-4.59h.76Z"/>
            <path id="Path_9" class="cls-2" d="M600.47,564.29c-.03-.64.2-1.26.62-1.74.45-.46,1.08-.7,1.72-.66.38,0,.76.08,1.1.24.29.14.54.36.72.64.16.24.27.5.34.78.06.22.09.46.09.69,0,.1,0,.2-.02.3h-3.85c0,.42.17.83.45,1.15.31.31.75.46,1.18.43.2,0,.41-.03.6-.1.15-.05.29-.13.41-.24.09-.09.17-.18.24-.29.05-.07.1-.15.13-.24l.03-.1h.74s-.02.1-.04.16c-.04.13-.1.25-.17.37-.21.4-.57.7-.99.84-.31.11-.63.17-.96.16-.64.03-1.26-.2-1.71-.64-.44-.47-.67-1.1-.63-1.74M601.2,563.95h3.15v-.06c0-.37-.14-.73-.4-.99-.29-.3-.7-.46-1.12-.43-.43-.02-.85.13-1.16.44-.27.28-.44.66-.47,1.05"/>
            <path id="Path_10" class="cls-2" d="M610.45,560.46c0-.14.05-.28.15-.38.09-.1.23-.16.37-.16.3,0,.54.24.54.54h0c0,.14-.06.27-.16.37-.1.1-.24.16-.38.15-.29,0-.52-.23-.52-.52M611.34,566.58h-.7v-4.59h.7v4.59Z"/>
            <path id="Path_11" class="cls-2" d="M617.17,560.02h.7v5.65c0,.08.01.17.06.24.07.05.15.07.23.06h.43v.61h-.43c-.27.03-.54-.04-.77-.19-.17-.2-.25-.46-.22-.71v-5.65Z"/>
            <path id="Path_12" class="cls-2" d="M623.9,560.02h.7v5.65c0,.08.01.17.06.24.07.05.15.07.23.06h.43v.61h-.43c-.27.03-.54-.04-.77-.19-.17-.2-.25-.46-.22-.71v-5.65Z"/>
            <path id="Path_13" class="cls-2" d="M630.57,564.9c.08-.16.2-.3.34-.41.16-.12.33-.22.51-.3.19-.08.38-.15.58-.21.21-.06.42-.1.63-.14.24-.04.43-.07.56-.08s.29-.03.48-.04l.3-.02c.03-.34-.08-.68-.3-.94-.26-.23-.6-.34-.94-.31-.21,0-.42.03-.62.09-.14.04-.28.11-.39.21-.07.07-.14.15-.19.24-.04.06-.06.13-.08.2v.09h-.76c0-.05,0-.1,0-.15.03-.12.07-.23.12-.33.07-.16.18-.3.3-.42.18-.15.39-.27.61-.34.32-.11.66-.16,1-.15,1.29,0,1.93.6,1.93,1.79v1.99c0,.08.01.17.06.24.07.05.15.07.23.06h.33v.61h-.34c-.26.02-.52-.04-.74-.17-.17-.17-.26-.4-.24-.64-.42.62-1.14.97-1.89.92-.43.03-.86-.09-1.21-.34-.28-.22-.44-.56-.44-.91,0-.19.04-.37.13-.53M631.17,565.43c0,.21.1.41.28.51.2.12.42.17.65.17h.05c.44,0,.87-.14,1.23-.39.36-.21.58-.58.58-.99v-.49l-.33.03c-.05,0-.18.02-.4.04-.16.01-.32.04-.48.07-.11.03-.26.06-.45.1-.16.03-.31.08-.45.15-.11.06-.22.12-.34.2-.11.06-.19.15-.26.26-.05.1-.08.2-.08.31v.04Z"/>
            <path id="Path_14" class="cls-2" d="M641.26,561.99v.87c.13-.28.34-.52.6-.69.29-.18.62-.28.96-.28h.04c.56-.05,1.11.15,1.51.53.35.47.53,1.05.48,1.64v2.52h-.71v-2.52c.04-.42-.07-.85-.31-1.2-.26-.27-.63-.4-1-.37-.42-.02-.82.13-1.12.42-.31.37-.46.85-.42,1.33v2.33h-.7v-4.59h.67Z"/>
            <path id="Path_15" class="cls-2" d="M650.82,562.54c.47-.45,1.1-.68,1.75-.65.34,0,.67.04.99.15.24.07.46.19.64.36.13.13.25.26.35.41.08.1.13.22.17.35l.03.15h-.77l-.03-.09c-.03-.07-.07-.14-.12-.2-.07-.1-.15-.18-.24-.26-.13-.09-.27-.16-.41-.2-.2-.06-.4-.09-.61-.09-.46-.02-.9.16-1.22.49-.32.36-.49.83-.46,1.31-.02.49.15.96.47,1.33.31.34.75.53,1.21.51.21,0,.42-.03.62-.11.16-.05.3-.14.42-.26.09-.09.17-.19.23-.3.05-.08.09-.16.11-.26l.03-.11h.77s-.02.1-.04.17c-.04.13-.1.26-.16.39-.09.18-.21.34-.35.48-.19.17-.41.3-.64.38-.32.12-.65.18-.99.17-1.24.1-2.32-.83-2.42-2.07,0-.12,0-.23,0-.35-.03-.64.21-1.27.66-1.72"/>
            <path id="Path_16" class="cls-2" d="M659.86,564.29c-.03-.64.2-1.26.62-1.74.45-.46,1.08-.7,1.72-.67.38,0,.76.08,1.1.24.29.14.54.36.72.64.16.24.27.5.34.78.06.22.09.46.09.69,0,.1,0,.2-.02.3h-3.86c0,.42.17.83.45,1.15.31.31.75.46,1.18.43.2,0,.41-.03.6-.1.15-.05.29-.13.41-.24.09-.09.17-.18.24-.29.05-.07.1-.15.13-.24l.03-.1h.74s-.02.1-.04.16c-.04.13-.1.25-.17.37-.21.4-.57.7-.99.84-.31.11-.63.17-.96.16-.64.03-1.26-.2-1.71-.64-.44-.47-.67-1.1-.63-1.74M660.58,563.94h3.15v-.05c0-.37-.14-.73-.4-.99-.29-.3-.7-.46-1.12-.43-.43-.02-.85.13-1.16.44-.27.28-.44.66-.47,1.05"/>
            <path id="Path_17" class="cls-2" d="M475.78,532.83c-1.41.51-2.79,1.1-4.13,1.77.35.69.53,1.46.53,2.24,0,2.79-2.26,5.05-5.05,5.05-1.52,0-2.96-.69-3.92-1.87-1.16.97-2.27,1.98-3.32,3.04,1.82,2.11,4.46,3.32,7.24,3.32.26,0,.52-.01.76-.04,5.25-.42,9.16-5,8.74-10.25-.09-1.13-.38-2.23-.85-3.26"/>
            <path id="Path_18" class="cls-2" d="M488.7,525.77c-.77,1.62-1.65,3.18-2.63,4.68-3.51.37-6.97,1.17-10.29,2.38-1.41.51-2.78,1.1-4.13,1.76-3.02,1.47-5.85,3.29-8.44,5.42-1.16.97-2.27,1.98-3.32,3.04-2.08,2.1-3.94,4.41-5.54,6.9h-5.26c2.35-4.11,5.29-7.85,8.71-11.11,2.88-2.73,6.09-5.1,9.55-7.05,1.76-.99,3.58-1.87,5.46-2.62,5.06-2.05,10.43-3.2,15.89-3.41"/>
            <path id="Path_19" class="cls-2" d="M440.22,540.02c-1.76,2.17-4.94,2.5-7.1.74-1.18-.96-1.87-2.4-1.87-3.92,0-.78.18-1.54.53-2.24-1.34-.66-2.72-1.26-4.13-1.77-2.21,4.77-.14,10.44,4.63,12.65,1.03.48,2.13.77,3.26.85.25.03.5.04.76.04,2.78,0,5.42-1.21,7.24-3.32-1.05-1.06-2.16-2.07-3.32-3.04"/>
            <path id="Path_20" class="cls-2" d="M454.34,549.95h-5.26c-1.6-2.49-3.46-4.8-5.54-6.9-1.05-1.06-2.16-2.06-3.32-3.03-2.59-2.13-5.43-3.95-8.44-5.42-1.34-.67-2.72-1.26-4.13-1.77-3.32-1.21-6.77-2.01-10.29-2.38-.98-1.5-1.86-3.07-2.63-4.68,5.45.21,10.83,1.37,15.89,3.42,1.87.75,3.7,1.63,5.46,2.62,1.7.96,3.34,2.01,4.92,3.17,1.63,1.19,3.17,2.48,4.64,3.87,2.25,2.13,4.3,4.48,6.1,7.01.93,1.31,1.81,2.69,2.62,4.1"/>
          </g>
        </g>
      </g>
    </g>
  </g>
</svg>