<svg xmlns="http://www.w3.org/2000/svg" version="1.1" viewBox="225.73 437.78 628.01 205.36">
  <defs>
    <style>
      .cls-1 {
        fill: #0068ff;
      }
    </style>
  </defs>
  <!-- Generator: Adobe Illustrator 28.6.0, SVG Export Plug-In . SVG Version: 1.2.0 Build 709)  -->
  <g>
    <g id="Layer_1">
      <g id="Group_3">
        <path id="Path_21" class="cls-1" d="M744.08,497.78c-11.95,4.36-23.66,9.37-35.06,15.02,2.98,5.89,4.51,12.39,4.49,18.99.01,23.68-19.17,42.88-42.85,42.89-12.93,0-25.18-5.82-33.32-15.87-9.81,8.25-19.3,16.8-28.18,25.77,15.42,17.88,37.85,28.17,61.46,28.18,2.19,0,4.38-.11,6.47-.32,44.53-3.52,77.77-42.48,74.25-87.01-.76-9.58-3.22-18.95-7.26-27.66"/>
        <path id="Path_22" class="cls-1" d="M853.74,437.79c-6.58,13.72-14.04,27-22.33,39.76-29.82,3.17-59.15,9.96-87.33,20.24-11.95,4.36-23.66,9.37-35.06,15.02-25.61,12.48-49.66,27.93-71.68,46.01-9.81,8.25-19.31,16.8-28.18,25.77-17.69,17.81-33.47,37.43-47.06,58.54h-44.66c19.96-34.86,44.88-66.64,73.98-94.33,24.46-23.18,51.69-43.26,81.07-59.79,14.94-8.41,30.41-15.83,46.32-22.22,42.96-17.4,88.61-27.21,134.92-29.01"/>
        <path id="Path_23" class="cls-1" d="M442.11,558.82c-14.92,18.38-41.92,21.19-60.31,6.27-10.03-8.14-15.86-20.37-15.85-33.29-.03-6.6,1.51-13.1,4.49-18.99-11.4-5.65-23.11-10.66-35.06-15.02-18.8,40.52-1.19,88.61,39.33,107.41,8.71,4.04,18.08,6.5,27.65,7.26,2.09.21,4.28.31,6.47.31,23.61,0,46.04-10.29,61.45-28.17-8.87-8.98-18.36-17.53-28.17-25.77"/>
        <path id="Path_24" class="cls-1" d="M562.01,643.13h-44.65c-13.59-21.11-29.37-40.73-47.06-58.54-8.87-8.97-18.36-17.53-28.17-25.77-22.02-18.08-46.07-33.53-71.68-46.01-11.4-5.64-23.11-10.66-35.06-15.02-28.18-10.28-57.5-17.07-87.33-20.24-8.3-12.76-15.75-26.04-22.33-39.76,46.31,1.8,91.96,11.61,134.91,29.01,15.91,6.39,31.38,13.82,46.32,22.23,14.45,8.11,28.39,17.1,41.74,26.91,13.79,10.12,26.92,21.1,39.33,32.87,19.13,18.11,36.47,38.02,51.76,59.48,7.93,11.16,15.34,22.85,22.22,34.85"/>
      </g>
    </g>
  </g>
</svg>